<svg width="285" height="75" viewBox="0 0 285 75" fill="none" xmlns="http://www.w3.org/2000/svg">
<rect width="285" height="75" fill="black" fill-opacity="0"/>
<rect width="285" height="75" fill="black" fill-opacity="0"/>
<path d="M35.5238 5.45853H15.1446C0 5.45853 0 20.5752 0 20.5752V43.6668C0 58.7834 14.1928 59.5 14.1928 59.5H27.8096L39.8401 75L49.199 67.6667L41.7436 58.0501C49.7333 54.2917 49.7333 44.4001 49.7333 44.4001V21.4002C49.75 6.28353 37.2687 5.45853 35.5238 5.45853ZM35.9829 44.8584C35.9811 45.3275 35.7976 45.7776 35.4708 46.1147C35.144 46.4517 34.6993 46.6495 34.2297 46.6668H19.0935C13.767 46.6668 13.767 40.5251 13.767 40.5251V20.1168C13.7623 19.6449 13.9418 19.1896 14.2674 18.8474C14.5931 18.5052 15.0394 18.303 15.5119 18.2835H30.6565C35.983 18.2835 35.9829 24.5168 35.9829 24.5168V44.8584Z" fill="#00FFC8"/>
<path d="M88.68 5.45853H68.3008C53.1563 5.45853 53.1563 20.5752 53.1563 20.5752V43.6668C53.1563 58.7834 67.3491 59.5 67.3491 59.5H80.9825L92.988 75L102.347 67.6667L94.9082 58.0501C102.898 54.2917 102.898 44.4001 102.898 44.4001V21.4002C102.906 6.28353 90.4166 5.45853 88.68 5.45853ZM89.1392 44.8584C89.144 45.3304 88.9645 45.7857 88.6388 46.1279C88.3131 46.4701 87.8668 46.6723 87.3943 46.6918H72.2414C66.9149 46.6918 66.9149 40.5501 66.9149 40.5501V20.1168C66.9102 19.6449 67.0897 19.1896 67.4154 18.8474C67.741 18.5052 68.1874 18.303 68.6598 18.2835H83.8044C89.1309 18.2835 89.1309 24.5168 89.1309 24.5168L89.1392 44.8584Z" fill="#00FFC8"/>
<path d="M119.837 37.3418H142.053V26.1668H119.837V17.1835H144.708V5.45853H106.797V59.5167H145.535V46.8751H119.837V37.3418Z" fill="#00FFC8"/>
<path d="M162.015 37.3418H184.231V26.1668H162.015V17.1835H186.894V5.45853H148.983V59.5167H187.721V46.8751H162.015V37.3418Z" fill="#00FFC8"/>
<path d="M230.232 18.7418V5.45853H193.799V18.7418H214.353L190.217 45.3168L191.135 59.5167H231.977V45.3168H206.096L230.232 18.7418Z" fill="#00FFC8"/>
<path d="M273.871 18.7418V5.45853H237.429V18.7418H257.992L233.847 45.3168L234.766 59.5167H275.616V45.3168H249.727L273.871 18.7418Z" fill="#00FFC8"/>
<path d="M282.045 4.10854C282.264 4.02663 282.452 3.87801 282.583 3.68364C282.713 3.48927 282.779 3.25896 282.771 3.02521C282.771 2.11688 281.986 1.75854 281.101 1.75854H279.206V6.24186H280.325V4.51687H280.767C281.477 4.51687 281.535 4.91687 281.602 5.16687C281.621 5.52885 281.671 5.88851 281.752 6.24186H282.838C282.736 5.88722 282.691 5.51883 282.704 5.1502C282.646 4.46687 282.37 4.24187 282.045 4.10854ZM280.884 3.79187H280.341V2.50021H280.943C281.176 2.50021 281.652 2.50021 281.652 3.07521C281.652 3.6502 281.118 3.79187 280.884 3.79187Z" fill="#00FFC8"/>
<path d="M280.993 0.000214872C280.19 -0.00804419 279.403 0.221956 278.732 0.661009C278.06 1.10006 277.535 1.72836 277.222 2.46611C276.909 3.20386 276.823 4.01778 276.975 4.80451C277.126 5.59124 277.508 6.31528 278.073 6.88469C278.637 7.4541 279.359 7.84319 280.145 8.00255C280.932 8.1619 281.748 8.08433 282.491 7.77969C283.233 7.47505 283.868 6.95708 284.315 6.29156C284.761 5.62604 285 4.843 285 4.04187C284.998 2.97494 284.574 1.95196 283.82 1.19519C283.067 0.438419 282.045 0.00899402 280.976 0.000214872H280.993ZM280.993 7.27519C280.144 7.26203 279.336 6.91477 278.743 6.30911C278.151 5.70345 277.822 4.8885 277.828 4.04187C277.822 3.20329 278.147 2.39593 278.733 1.7952C279.319 1.19446 280.119 0.848886 280.959 0.833546C281.379 0.838975 281.793 0.926982 282.179 1.09252C282.564 1.25806 282.913 1.49789 283.205 1.79825C283.498 2.09861 283.728 2.45361 283.882 2.8429C284.037 3.23219 284.113 3.64813 284.107 4.06687C284.113 4.90829 283.786 5.71813 283.196 6.31934C282.606 6.92054 281.802 7.26421 280.959 7.27519H280.993Z" fill="#00FFC8"/>
</svg>
